<svg width="18" height="16" viewBox="0 0 18 16" fill="none" xmlns="http://www.w3.org/2000/svg">
<path d="M0.21967 15.2803C-0.0465966 15.0141 -0.0708027 14.5974 0.147052 14.3038L0.21967 14.2197L6.689 7.75L0.21967 1.28033C-0.0465966 1.01406 -0.0708027 0.5974 0.147052 0.303788L0.21967 0.21967C0.485936 -0.0465965 0.9026 -0.0708027 1.19621 0.147052L1.28033 0.21967L8.28033 7.21967C8.5466 7.48594 8.5708 7.9026 8.35295 8.19621L8.28033 8.28033L1.28033 15.2803C0.987437 15.5732 0.512563 15.5732 0.21967 15.2803Z" fill="white"/>
<path d="M9.21967 15.2803C8.9534 15.0141 8.9292 14.5974 9.14705 14.3038L9.21967 14.2197L15.689 7.75L9.21967 1.28033C8.9534 1.01406 8.9292 0.5974 9.14705 0.303788L9.21967 0.21967C9.48594 -0.0465965 9.9026 -0.0708027 10.1962 0.147052L10.2803 0.21967L17.2803 7.21967C17.5466 7.48594 17.5708 7.9026 17.3529 8.19621L17.2803 8.28033L10.2803 15.2803C9.98744 15.5732 9.51256 15.5732 9.21967 15.2803Z" fill="white"/>
</svg>
