<svg width="23" height="20" viewBox="0 0 23 20" fill="none" xmlns="http://www.w3.org/2000/svg">
<path d="M0 0.494217C0.159811 0.125616 0.433278 -0.00734092 0.825017 -0.000218202C1.8035 0.0187757 2.78256 0.0057174 3.76162 0.00631096C4.16085 0.00631096 4.37547 0.170133 4.48567 0.56307C4.6801 1.25813 4.87164 1.95437 5.0701 2.67199C5.16068 2.67199 5.25299 2.67199 5.3453 2.67199C10.6785 2.67199 16.0117 2.67199 21.3449 2.67199C21.9495 2.67199 22.2241 3.04593 22.0574 3.64543C21.2127 6.68327 20.3675 9.72051 19.5223 12.7584C19.4041 13.1827 19.205 13.3341 18.7706 13.3341C15.1359 13.3341 11.5012 13.3365 7.86708 13.3282C7.64035 13.3276 7.52727 13.397 7.43381 13.6071C7.17015 14.1971 7.45227 14.6684 8.09036 14.6684C11.6604 14.669 15.2299 14.6684 18.8 14.669C19.2194 14.669 19.5033 14.9189 19.5189 15.2982C19.535 15.6888 19.2564 15.9968 18.8704 15.9992C18.1365 16.0033 17.4027 16.0004 16.6625 16.0158C17.195 16.1583 17.6242 16.4485 17.9196 16.9251C18.2208 17.4113 18.3021 17.9419 18.1654 18.4999C17.9323 19.4478 17.083 20.0609 16.108 19.9968C15.2276 19.9386 14.447 19.164 14.3466 18.2381C14.2561 17.4059 14.6547 16.3702 15.9407 16.0128C13.9797 16.0128 12.0608 16.0128 10.1073 16.0128C11.3743 16.3624 11.7989 17.4053 11.6904 18.2571C11.5612 19.2733 10.7327 20.0033 9.74155 19.9998C8.78153 19.9962 7.95709 19.2584 7.83016 18.2636C7.7142 17.3543 8.19998 16.3381 9.3775 16.001C8.91653 16.001 8.45556 16.0016 7.99459 16.001C7.05707 15.9992 6.30417 15.3961 6.0757 14.4648C5.94762 13.9425 6.03359 13.4487 6.29032 12.9898C6.43571 12.7305 6.45013 12.4966 6.36763 12.201C5.37069 8.65388 4.3899 5.10321 3.41084 1.55253C3.3618 1.37506 3.28507 1.33054 3.11372 1.33292C2.35101 1.34301 1.58773 1.32223 0.825017 1.3436C0.432701 1.35429 0.160388 1.21717 0 0.84976C0 0.731048 0 0.612929 0 0.494217ZM18.3817 11.9927C19.1202 9.33351 19.8575 6.67792 20.5977 4.01284C15.5328 4.01284 10.4968 4.01284 5.4428 4.01284C6.18301 6.67911 6.91976 9.33232 7.65881 11.9927C11.2335 11.9927 14.8013 11.9927 18.3817 11.9927ZM10.4068 18.0179C10.4194 17.6707 10.1217 17.3472 9.77732 17.3341C9.43923 17.321 9.1248 17.6273 9.11269 17.9817C9.10057 18.3301 9.39769 18.653 9.74212 18.6661C10.0802 18.6785 10.3941 18.3728 10.4068 18.0179ZM16.2846 18.6655C16.6278 18.6625 16.9307 18.3473 16.9278 17.9959C16.925 17.6428 16.6192 17.3311 16.2771 17.3341C15.9344 17.3371 15.6309 17.6528 15.6338 18.0036C15.6367 18.3556 15.9436 18.6684 16.2846 18.6655Z" fill="white"/>
</svg>
